<svg width="246" height="173" viewBox="0 0 246 173" fill="none" xmlns="http://www.w3.org/2000/svg">
<g filter="url(#filter0_dd_1105_7532)">
<g clip-path="url(#clip0_1105_7532)">
<rect x="12.5" y="5" width="221" height="147" fill="white"/>
<path d="M12.5 102.998H233.5V151.998H12.5V102.998Z" fill="#1EB53A"/>
<path d="M12.5 5H233.5V54H12.5V5Z" fill="#0099B5"/>
<path d="M12.5 52.0391H233.5V104.959H12.5V52.0391Z" fill="#CE1126"/>
<path d="M12.5 54.9805H233.5V102.02H12.5V54.9805Z" fill="white"/>
<path d="M55.8715 45.327C65.1765 45.327 72.7196 37.7839 72.7196 28.479C72.7196 19.174 65.1765 11.6309 55.8715 11.6309C46.5666 11.6309 39.0234 19.174 39.0234 28.479C39.0234 37.7839 46.5666 45.327 55.8715 45.327Z" fill="white"/>
<path d="M61.4848 45.327C70.7898 45.327 78.3329 37.7839 78.3329 28.479C78.3329 19.174 70.7898 11.6309 61.4848 11.6309C52.1799 11.6309 44.6367 19.174 44.6367 28.479C44.6367 37.7839 52.1799 45.327 61.4848 45.327Z" fill="#0099B5"/>
<path d="M92.9303 38.5918L91.8633 41.7929L93.4919 42.3545" fill="white"/>
<path d="M92.929 38.5918L93.9961 41.7929L92.3674 42.3545" fill="white"/>
<path d="M96.1205 40.9629L92.755 40.8411L92.7752 42.6179" fill="white"/>
<path d="M96.106 40.9414L93.4581 42.9329L92.383 41.484" fill="white"/>
<path d="M89.7572 40.9414L92.4052 42.9329L93.4803 41.484" fill="white"/>
<path d="M89.7428 40.9629L93.1083 40.8411L93.0881 42.6179" fill="white"/>
<path d="M94.9349 44.6988L93.8688 41.4764L92.2481 41.9474" fill="white"/>
<path d="M94.9245 44.7055L92.1735 42.701L93.1245 41.313" fill="white"/>
<path d="M90.9592 44.6723L93.6989 42.7441L92.681 41.313" fill="white"/>
<path d="M90.9665 44.6812L91.945 41.4687L93.6152 41.9979" fill="white"/>
<path d="M92.9303 25.1113L91.8633 28.3125L93.4919 28.8741" fill="white"/>
<path d="M92.929 25.1113L93.9961 28.3125L92.3674 28.8741" fill="white"/>
<path d="M96.1166 27.4825L92.7511 27.3606L92.7712 29.1375" fill="white"/>
<path d="M96.1021 27.4609L93.4542 29.4524L92.3791 28.0036" fill="white"/>
<path d="M89.7572 27.4609L92.4052 29.4524L93.4803 28.0036" fill="white"/>
<path d="M89.7428 27.4825L93.1083 27.3606L93.0881 29.1375" fill="white"/>
<path d="M94.9349 31.2183L93.8688 27.9959L92.2481 28.4669" fill="white"/>
<path d="M94.9245 31.225L92.1735 29.2205L93.1245 27.8326" fill="white"/>
<path d="M90.9592 31.1918L93.6989 29.2636L92.681 27.8326" fill="white"/>
<path d="M90.9665 31.2007L91.945 27.9882L93.6152 28.5174" fill="white"/>
<path d="M92.9303 11.6348L91.8633 14.8359L93.4919 15.3975" fill="white"/>
<path d="M92.929 11.6348L93.9961 14.8359L92.3674 15.3975" fill="white"/>
<path d="M96.1166 14.0059L92.7511 13.8841L92.7712 15.6609" fill="white"/>
<path d="M96.1021 13.9843L93.4542 15.9759L92.3791 14.527" fill="white"/>
<path d="M89.7572 13.9843L92.4052 15.9759L93.4803 14.527" fill="white"/>
<path d="M89.7428 14.0059L93.1083 13.8841L93.0881 15.6609" fill="white"/>
<path d="M94.9349 17.7418L93.8688 14.5194L92.2481 14.9903" fill="white"/>
<path d="M94.9245 17.7485L92.1735 15.744L93.1245 14.356" fill="white"/>
<path d="M90.9592 17.7153L93.6989 15.7871L92.681 14.356" fill="white"/>
<path d="M90.9665 17.7242L91.945 14.5117L93.6152 15.0409" fill="white"/>
<path d="M106.407 38.5918L105.34 41.7929L106.968 42.3545" fill="white"/>
<path d="M106.406 38.5918L107.473 41.7929L105.844 42.3545" fill="white"/>
<path d="M109.597 40.9629L106.232 40.8411L106.252 42.6179" fill="white"/>
<path d="M109.583 40.9414L106.935 42.9329L105.86 41.484" fill="white"/>
<path d="M103.234 40.9414L105.882 42.9329L106.957 41.484" fill="white"/>
<path d="M103.219 40.9629L106.585 40.8411L106.565 42.6179" fill="white"/>
<path d="M108.411 44.6988L107.345 41.4764L105.725 41.9474" fill="white"/>
<path d="M108.401 44.7074L105.65 42.703L106.601 41.315" fill="white"/>
<path d="M104.436 44.6743L107.175 42.7461L106.158 41.315" fill="white"/>
<path d="M104.443 44.6832L105.422 41.4707L107.092 41.9999" fill="white"/>
<path d="M106.407 25.1113L105.34 28.3125L106.968 28.8741" fill="white"/>
<path d="M106.406 25.1113L107.473 28.3125L105.844 28.8741" fill="white"/>
<path d="M109.597 27.4825L106.232 27.3606L106.252 29.1375" fill="white"/>
<path d="M109.583 27.4609L106.935 29.4524L105.86 28.0036" fill="white"/>
<path d="M103.234 27.4609L105.882 29.4524L106.957 28.0036" fill="white"/>
<path d="M103.219 27.4825L106.585 27.3606L106.565 29.1375" fill="white"/>
<path d="M108.411 31.2183L107.345 27.9959L105.725 28.4669" fill="white"/>
<path d="M108.401 31.225L105.65 29.2205L106.601 27.8326" fill="white"/>
<path d="M104.436 31.1918L107.175 29.2636L106.158 27.8326" fill="white"/>
<path d="M104.443 31.1988L105.422 27.9863L107.092 28.5155" fill="white"/>
<path d="M106.407 11.6348L105.34 14.8359L106.968 15.3975" fill="white"/>
<path d="M106.406 11.6348L107.473 14.8359L105.844 15.3975" fill="white"/>
<path d="M109.597 14.0059L106.232 13.8841L106.252 15.6609" fill="white"/>
<path d="M109.583 13.9843L106.935 15.9759L105.86 14.527" fill="white"/>
<path d="M103.23 13.9843L105.878 15.9759L106.953 14.527" fill="white"/>
<path d="M103.215 14.0059L106.581 13.8841L106.561 15.6609" fill="white"/>
<path d="M108.411 17.7418L107.345 14.5194L105.725 14.9903" fill="white"/>
<path d="M108.401 17.7485L105.65 15.744L106.601 14.356" fill="white"/>
<path d="M104.436 17.7153L107.175 15.7871L106.158 14.356" fill="white"/>
<path d="M104.443 17.7242L105.422 14.5117L107.092 15.0409" fill="white"/>
<path d="M119.883 38.5918L118.816 41.7929L120.445 42.3545" fill="white"/>
<path d="M119.886 38.5918L120.953 41.7929L119.324 42.3545" fill="white"/>
<path d="M123.074 40.9629L119.708 40.8411L119.728 42.6179" fill="white"/>
<path d="M123.059 40.9414L120.411 42.9329L119.336 41.484" fill="white"/>
<path d="M116.706 40.9414L119.354 42.9329L120.43 41.484" fill="white"/>
<path d="M116.696 40.9629L120.061 40.8411L120.041 42.6179" fill="white"/>
<path d="M121.888 44.6988L120.822 41.4764L119.201 41.9474" fill="white"/>
<path d="M121.878 44.7055L119.127 42.701L120.078 41.313" fill="white"/>
<path d="M117.912 44.6743L120.652 42.7461L119.634 41.315" fill="white"/>
<path d="M117.92 44.6832L118.898 41.4707L120.568 41.9999" fill="white"/>
<path d="M119.883 25.1113L118.816 28.3125L120.445 28.8741" fill="white"/>
<path d="M119.886 25.1113L120.953 28.3125L119.324 28.8741" fill="white"/>
<path d="M123.074 27.4825L119.708 27.3606L119.728 29.1375" fill="white"/>
<path d="M123.059 27.4609L120.411 29.4524L119.336 28.0036" fill="white"/>
<path d="M116.71 27.4609L119.358 29.4524L120.433 28.0036" fill="white"/>
<path d="M116.696 27.4825L120.061 27.3606L120.041 29.1375" fill="white"/>
<path d="M121.888 31.2183L120.822 27.9959L119.201 28.4669" fill="white"/>
<path d="M121.878 31.225L119.127 29.2205L120.078 27.8326" fill="white"/>
<path d="M117.912 31.1918L120.652 29.2636L119.634 27.8326" fill="white"/>
<path d="M117.92 31.1988L118.898 27.9863L120.568 28.5155" fill="white"/>
<path d="M119.883 11.6348L118.816 14.8359L120.445 15.3975" fill="white"/>
<path d="M119.886 11.6348L120.953 14.8359L119.324 15.3975" fill="white"/>
<path d="M123.074 14.0059L119.708 13.8841L119.728 15.6609" fill="white"/>
<path d="M123.059 13.9843L120.411 15.9759L119.336 14.527" fill="white"/>
<path d="M116.706 13.9843L119.354 15.9759L120.43 14.527" fill="white"/>
<path d="M116.692 14.0059L120.057 13.8841L120.037 15.6609" fill="white"/>
<path d="M121.888 17.7418L120.822 14.5194L119.201 14.9903" fill="white"/>
<path d="M121.878 17.7504L119.127 15.7459L120.078 14.358" fill="white"/>
<path d="M117.912 17.7172L120.652 15.789L119.634 14.358" fill="white"/>
<path d="M117.92 17.7261L118.898 14.5136L120.568 15.0428" fill="white"/>
<path d="M65.9733 38.5938L64.9062 41.7949L66.5349 42.3565" fill="white"/>
<path d="M65.972 38.5938L67.0391 41.7949L65.4104 42.3565" fill="white"/>
<path d="M69.1635 40.9649L65.798 40.843L65.8181 42.6199" fill="white"/>
<path d="M69.149 40.9433L66.5011 42.9348L65.426 41.486" fill="white"/>
<path d="M62.7963 40.9433L65.4442 42.9348L66.5194 41.486" fill="white"/>
<path d="M62.7857 40.9649L66.1512 40.843L66.1311 42.6199" fill="white"/>
<path d="M67.9778 44.7008L66.9118 41.4783L65.291 41.9493" fill="white"/>
<path d="M67.9675 44.7094L65.2164 42.7049L66.1675 41.3169" fill="white"/>
<path d="M64.0022 44.6762L66.7419 42.748L65.7239 41.3169" fill="white"/>
<path d="M64.0095 44.6851L64.988 41.4726L66.6582 42.0018" fill="white"/>
<path d="M79.4499 38.5938L78.3828 41.7949L80.0115 42.3565" fill="white"/>
<path d="M79.4525 38.5938L80.5195 41.7949L78.8909 42.3565" fill="white"/>
<path d="M82.6361 40.9649L79.2706 40.843L79.2908 42.6199" fill="white"/>
<path d="M82.6217 40.9433L79.9738 42.9348L78.8986 41.486" fill="white"/>
<path d="M76.2729 40.9433L78.9208 42.9348L79.9959 41.486" fill="white"/>
<path d="M76.2623 40.9649L79.6278 40.843L79.6077 42.6199" fill="white"/>
<path d="M81.4544 44.7008L80.3883 41.4783L78.7676 41.9493" fill="white"/>
<path d="M81.444 44.7094L78.693 42.7049L79.6441 41.3169" fill="white"/>
<path d="M77.4788 44.6762L80.2184 42.748L79.2005 41.3169" fill="white"/>
<path d="M77.4861 44.6851L78.4645 41.4726L80.1348 42.0018" fill="white"/>
<path d="M79.4499 25.1172L78.3828 28.3183L80.0115 28.8799" fill="white"/>
<path d="M79.4525 25.1172L80.5195 28.3183L78.8909 28.8799" fill="white"/>
<path d="M82.6361 27.4883L79.2706 27.3665L79.2908 29.1433" fill="white"/>
<path d="M82.6217 27.4667L79.9738 29.4583L78.8986 28.0094" fill="white"/>
<path d="M76.2768 27.4667L78.9247 29.4583L79.9998 28.0094" fill="white"/>
<path d="M76.2623 27.4883L79.6278 27.3665L79.6077 29.1433" fill="white"/>
<path d="M81.4544 31.2242L80.3883 28.0018L78.7676 28.4728" fill="white"/>
<path d="M81.444 31.2309L78.693 29.2264L79.6441 27.8384" fill="white"/>
<path d="M77.4788 31.1996L80.2184 29.2714L79.2005 27.8404" fill="white"/>
<path d="M77.4861 31.2086L78.4645 27.9961L80.1348 28.5252" fill="white"/>
</g>
<rect x="12.5" y="5" width="221" height="147" stroke="#A8B7D4" stroke-width="0.498424" stroke-linejoin="round"/>
</g>
<defs>
<filter id="filter0_dd_1105_7532" x="0.25" y="0.75" width="245.5" height="171.5" filterUnits="userSpaceOnUse" color-interpolation-filters="sRGB">
<feFlood flood-opacity="0" result="BackgroundImageFix"/>
<feColorMatrix in="SourceAlpha" type="matrix" values="0 0 0 0 0 0 0 0 0 0 0 0 0 0 0 0 0 0 127 0" result="hardAlpha"/>
<feOffset dy="8"/>
<feGaussianBlur stdDeviation="6"/>
<feComposite in2="hardAlpha" operator="out"/>
<feColorMatrix type="matrix" values="0 0 0 0 0.258824 0 0 0 0 0.278431 0 0 0 0 0.298039 0 0 0 0.08 0"/>
<feBlend mode="normal" in2="BackgroundImageFix" result="effect1_dropShadow_1105_7532"/>
<feColorMatrix in="SourceAlpha" type="matrix" values="0 0 0 0 0 0 0 0 0 0 0 0 0 0 0 0 0 0 127 0" result="hardAlpha"/>
<feOffset/>
<feGaussianBlur stdDeviation="0.5"/>
<feComposite in2="hardAlpha" operator="out"/>
<feColorMatrix type="matrix" values="0 0 0 0 0.258824 0 0 0 0 0.278431 0 0 0 0 0.298039 0 0 0 0.32 0"/>
<feBlend mode="normal" in2="effect1_dropShadow_1105_7532" result="effect2_dropShadow_1105_7532"/>
<feBlend mode="normal" in="SourceGraphic" in2="effect2_dropShadow_1105_7532" result="shape"/>
</filter>
<clipPath id="clip0_1105_7532">
<rect x="12.5" y="5" width="221" height="147" fill="white"/>
</clipPath>
</defs>
</svg>
